#!OML:ASF X:\für Bonn\!DataBase\2005_08_12_Daniel\c3d\Daniel.ASF
:FULLY-SPECIFIED
:DEGREES
172
root 4.24529 17.1484 -1.73129 -871.491 -72.4266 822.715
lowerback 42.1888 6.28872 2.57971
upperback 13.6537 5.24802 -10.7338
thorax -3.99988 2.03043 -15.0626
lowerneck 15.1593 11.5946 1.48283
upperneck 32.4882 12.328 6.13039
head 7.5708 5.55924 1.86489
rclavicle 3.67752e-015 1.22451e-013
rhumerus -42.6774 10.8737 -98.5359
rradius 60.1378
rwrist -2.23951
rhand -27.9557 21.0671
rfingers 7.12502
rthumb -1.34313 -8.90843
lclavicle 3.67752e-015 1.22451e-013
lhumerus -59.6675 29.6671 55.7022
lradius 128.115
lwrist 210.258
lhand -5.33043 19.5952
lfingers 7.12502
lthumb 20.4759 48.5355
rfemur 41.0031 6.05224 7.38868
rtibia 19.3205
rfoot -12.7222 2.43005
rtoes -3.45265
lfemur -75.4143 4.68158 -7.43404
ltibia 62.9318
lfoot 4.94052 -1.57765
ltoes -18.5931
173
root 4.2211 17.1158 -1.74211 -870.943 -72.3035 822.351
lowerback 42.1837 6.28817 2.36912
upperback 13.5952 5.16057 -10.7466
thorax -4.09919 1.97348 -14.9293
lowerneck 14.9077 11.7941 1.31795
upperneck 32.5469 12.6166 6.06924
head 7.61545 5.6823 1.88854
rclavicle -3.79679e-014 -1.90833e-014
rhumerus -42.2987 10.4483 -98.6192
rradius 57.8519
rwrist -1.40096
rhand -28.2922 21.4822
rfingers 7.12502
rthumb -1.66808 -8.491
lclavicle -3.79679e-014 -1.90833e-014
lhumerus -59.1997 29.1339 55.4353
lradius 128.036
lwrist 210.511
lhand -5.31855 19.5429
lfingers 7.12502
lthumb 20.4873 48.4819
rfemur 39.7634 5.94037 7.1484
rtibia 21.3257
rfoot -13.6078 2.51242
rtoes -3.55834
lfemur -76.0954 5.28795 -8.53544
ltibia 66.6684
lfoot 6.8696 -2.39223
ltoes -19.3085
174
root 4.19901 17.0831 -1.75336 -870.024 -72.167 821.742
lowerback 42.0216 6.29338 2.09609
upperback 13.5439 5.06724 -10.7776
thorax -4.14942 1.9167 -14.7716
lowerneck 14.6194 11.9487 1.14727
upperneck 32.55 12.8588 5.98361
head 7.64734 5.78351 1.90498
rclavicle -5.20816e-014 8.90555e-014
rhumerus -41.938 9.78098 -98.6073
rradius 55.6217
rwrist -0.279088
rhand -28.4975 21.8351
rfingers 7.12502
rthumb -1.86636 -8.13653
lclavicle -5.20816e-014 8.90555e-014
lhumerus -58.5296 28.4893 55.2994
lradius 127.984
lwrist 210.691
lhand -5.25654 19.5693
lfingers 7.12502
lthumb 20.5469 48.502
rfemur 38.4769 5.81356 6.84813
rtibia 23.1806
rfoot -14.4209 2.56958
rtoes -3.62943
lfemur -76.684 5.76224 -9.64357
ltibia 70.2407
lfoot 8.959 -2.74662
ltoes -20.8011
175
root 4.18041 17.0525 -1.76599 -868.924 -72.0561 821.084
lowerback 41.7229 6.28922 1.79489
upperback 13.4725 4.96887 -10.8028
thorax -4.18416 1.86016 -14.5834
lowerneck 14.3389 12.0655 1.01512
upperneck 32.522 13.0712 5.82834
head 7.67626 5.87061 1.89173
rclavicle -4.37326e-015 -1.11319e-014
rhumerus -41.6605 8.9504 -98.518
rradius 53.5096
rwrist 0.88879
rhand -28.5484 22.2505
rfingers 7.12502
rthumb -1.91555 -7.72063
lclavicle -4.37326e-015 -1.11319e-014
lhumerus -57.819 27.8594 55.2624
lradius 128.014
lwrist 210.756
lhand -5.23508 19.7286
lfingers 7.12502
lthumb 20.5675 48.659
rfemur 37.1329 5.64686 6.55843
rtibia 24.8932
rfoot -15.1423 2.61133
rtoes -3.72423
lfemur -77.1716 6.13137 -10.6957
ltibia 73.6208
lfoot 10.9573 -2.67262
ltoes -21.6892
176
root 4.16122 17.0269 -1.78738 -867.534 -72.1876 820.236
lowerback 41.2969 6.19102 1.57034
upperback 13.3951 4.81587 -10.7734
thorax -4.19661 1.7849 -14.3468
lowerneck 14.1021 12.1546 0.914543
upperneck 32.4385 13.2609 5.63259
head 7.68549 5.94821 1.85625
rclavicle 4.96962e-015 -4.77083e-015
rhumerus -41.4833 8.07868 -98.359
rradius 51.5341
rwrist 2.04999
rhand -28.4327 22.5309
rfingers 7.12502
rthumb -1.80383 -7.44126
lclavicle 4.96962e-015 -4.77083e-015
lhumerus -57.0375 27.2492 55.2948
lradius 128.099
lwrist 210.703
lhand -5.28928 19.91
lfingers 7.12502
lthumb 20.5154 48.8461
rfemur 35.8794 5.33332 6.51972
rtibia 26.4412
rfoot -15.8664 2.47116
rtoes -3.83081
lfemur -77.6293 6.28325 -11.7225
ltibia 76.8262
lfoot 12.8499 -2.30861
ltoes -22.0243
177
root 4.14389 17.0053 -1.81271 -866.098 -72.46 819.447
lowerback 40.7343 6.03412 1.40848
upperback 13.3238 4.64098 -10.6927
thorax -4.16115 1.70595 -14.0703
lowerneck 13.8802 12.2203 0.842909
upperneck 32.3115 13.4423 5.35209
head 7.68686 6.02028 1.78702
rclavicle -1.82882e-014 7.95139e-015
rhumerus -41.3759 7.24522 -98.1318
rradius 49.6987
rwrist 3.07598
rhand -28.1435 22.7038
rfingers 7.12502
rthumb -1.5245 -7.2705
lclavicle -1.82882e-014 7.95139e-015
lhumerus -56.1731 26.6513 55.3593
lradius 128.164
lwrist 210.627
lhand -5.38719 20.1917
lfingers 7.12502
lthumb 20.4214 49.1379
rfemur 34.6498 4.93545 6.66119
rtibia 27.8228
rfoot -16.525 2.25733
rtoes -3.85843
lfemur -78.0408 6.32452 -12.6771
ltibia 79.8816
lfoot 14.9676 -1.73456
ltoes -21.4743
178
root 4.13171 16.9866 -1.83433 -864.718 -72.7313 818.793
lowerback 40.1334 5.85601 1.30142
upperback 13.2262 4.46714 -10.6176
thorax -4.13545 1.63103 -13.8319
lowerneck 13.6374 12.2723 0.802758
upperneck 32.1782 13.6133 5.05335
head 7.69381 6.09023 1.70878
rclavicle -2.38542e-014 6.36111e-015
rhumerus -41.3408 6.37081 -97.8465
rradius 47.9955
rwrist 4.03068
rhand -27.6762 22.7339
rfingers 7.12502
rthumb -1.07323 -7.24312
lclavicle -2.38542e-014 6.36111e-015
lhumerus -55.2336 26.0552 55.4593
lradius 128.184
lwrist 210.497
lhand -5.53367 20.5833
lfingers 7.12502
lthumb 20.2806 49.5445
rfemur 33.3963 4.5298 6.80294
rtibia 29.036
rfoot -17.0483 2.08934
rtoes -3.89946
lfemur -78.3392 6.33033 -13.5691
ltibia 82.7907
lfoot 17.0278 -0.940987
ltoes -21.0404
179
root 4.12524 16.972 -1.85053 -863.329 -73.0246 818.192
lowerback 39.4905 5.63303 1.29421
upperback 13.1223 4.28106 -10.5517
thorax -4.09641 1.55645 -13.655
lowerneck 13.4518 12.3027 0.845104
upperneck 32.003 13.7729 4.69408
head 7.68996 6.15983 1.5945
rclavicle 3.27995e-015 -3.18055e-015
rhumerus -41.3622 5.441 -97.4788
rradius 46.3884
rwrist 4.9414
rhand -27.0191 22.5925
rfingers 7.12502
rthumb -0.438536 -7.38678
lclavicle 3.27995e-015 -3.18055e-015
lhumerus -54.1976 25.4615 55.5674
lradius 128.162
lwrist 210.396
lhand -5.67471 20.9966
lfingers 7.12502
lthumb 20.145 49.9721
rfemur 32.0901 4.06598 6.90523
rtibia 30.1646
rfoot -17.4759 2.00338
rtoes -3.9819
lfemur -78.5148 6.26506 -14.4139
ltibia 85.5435
lfoot 18.8034 -0.0945384
ltoes -20.5608
180
root 4.12454 16.9629 -1.86637 -861.954 -73.3373 817.655
lowerback 38.8297 5.39247 1.3206
upperback 13.0021 4.08841 -10.4748
thorax -4.06471 1.48008 -13.4834
lowerneck 13.4244 12.3584 0.836905
upperneck 31.7 13.9616 4.33279
head 7.61398 6.23921 1.47347
rclavicle 7.76254e-014 -3.33958e-014
rhumerus -41.4473 4.55309 -97.0567
rradius 44.8764
rwrist 5.79698
rhand -26.2811 22.2593
rfingers 7.12502
rthumb 0.274235 -7.72023
lclavicle 7.76254e-014 -3.33958e-014
lhumerus -53.0995 24.9108 55.6737
lradius 128.116
lwrist 210.3
lhand -5.83638 21.5069
lfingers 7.12502
lthumb 19.9896 50.4987
rfemur 30.7332 3.60358 7.05212
rtibia 31.2665
rfoot -17.8785 1.94663
rtoes -4.04541
lfemur -78.5541 6.17189 -15.2103
ltibia 88.1276
lfoot 20.133 1.0446
ltoes -19.6954
181
root 4.12529 16.9536 -1.88163 -860.64 -73.6597 817.219
lowerback 38.1445 5.12925 1.41867
upperback 12.8583 3.8955 -10.401
thorax -4.04242 1.40695 -13.3572
lowerneck 13.5069 12.4332 0.826987
upperneck 31.3441 14.167 3.98495
head 7.503 6.32766 1.34918
rclavicle 5.84427e-014 -7.79236e-014
rhumerus -41.6478 3.70135 -96.5819
rradius 43.4819
rwrist 6.55369
rhand -25.4164 21.7288
rfingers 7.12502
rthumb 1.10941 -8.2481
lclavicle 5.84427e-014 -7.79236e-014
lhumerus -51.9362 24.3958 55.758
lradius 128.061
lwrist 210.271
lhand -5.93754 22.0512
lfingers 7.12502
lthumb 19.8924 51.0531
rfemur 29.3176 3.14025 7.23053
rtibia 32.3835
rfoot -18.2636 1.90657
rtoes -3.99236
lfemur -78.4291 6.12296 -15.9873
ltibia 90.5316
lfoot 20.9277 2.43519
ltoes -19.1442
182
root 4.12568 16.939 -1.8966 -859.335 -74.001 816.823
lowerback 37.434 4.85894 1.53336
upperback 12.7082 3.70155 -10.3038
thorax -4.0131 1.33395 -13.2142
lowerneck 13.6309 12.5281 0.845461
upperneck 30.9741 14.4046 3.60223
head 7.38769 6.43299 1.20786
rclavicle -4.45278e-014 9.85972e-014
rhumerus -41.8975 2.96 -96.0712
rradius 42.1507
rwrist 7.25982
rhand -24.609 21.0891
rfingers 7.12502
rthumb 1.88922 -8.88233
lclavicle -4.45278e-014 9.85972e-014
lhumerus -50.7342 23.9346 55.8198
lradius 128.021
lwrist 210.282
lhand -5.99034 22.5364
lfingers 7.12502
lthumb 19.8416 51.5436
rfemur 27.8585 2.68028 7.45268
rtibia 33.5204
rfoot -18.6513 1.87649
rtoes -3.90319
lfemur -78.1322 6.13059 -16.7713
ltibia 92.7408
lfoot 21.288 3.82289
ltoes -18.5141
183
root 4.12644 16.9198 -1.91021 -858.011 -74.3476 816.429
lowerback 36.701 4.58975 1.67863
upperback 12.5621 3.51758 -10.2025
thorax -3.96221 1.26768 -13.0885
lowerneck 13.8548 12.6238 0.924061
upperneck 30.4737 14.6525 3.19763
head 7.22053 6.55343 1.04104
rclavicle -2.96189e-014 7.63333e-014
rhumerus -42.1598 2.19941 -95.4988
rradius 40.8241
rwrist 8.04389
rhand -23.78 20.4279
rfingers 7.12502
rthumb 2.68982 -9.53493
lclavicle -2.96189e-014 7.63333e-014
lhumerus -49.4501 23.5322 55.8809
lradius 127.986
lwrist 210.368
lhand -6.04587 22.9731
lfingers 7.12502
lthumb 19.7883 51.9858
rfemur 26.3553 2.20021 7.65252
rtibia 34.6783
rfoot -19.0188 1.92563
rtoes -3.74915
lfemur -77.6525 6.19091 -17.5585
ltibia 94.7385
lfoot 21.4274 4.89618
ltoes -17.5666
184
root 4.12958 16.9015 -1.9247 -856.699 -74.7155 816.081
lowerback 35.9283 4.32295 1.82647
upperback 12.3897 3.33954 -10.0803
thorax -3.91915 1.20422 -12.9442
lowerneck 14.2179 12.7382 1.01894
upperneck 29.8157 14.9188 2.82137
head 6.97988 6.69199 0.867711
rclavicle 6.37105e-014 4.77083e-015
rhumerus -42.5027 1.53494 -94.9079
rradius 39.5306
rwrist 8.86643
rhand -23.043 19.6588
rfingers 7.12502
rthumb 3.40159 -10.2938
lclavicle 6.37105e-014 4.77083e-015
lhumerus -48.1554 23.1919 55.8804
lradius 127.979
lwrist 210.505
lhand -6.07437 23.2761
lfingers 7.12502
lthumb 19.7609 52.2916
rfemur 24.8141 1.70116 7.88748
rtibia 35.8251
rfoot -19.3652 1.98961
rtoes -3.47144
lfemur -77.0102 6.28084 -18.299
ltibia 96.5367
lfoot 21.3216 5.70296
ltoes -15.7991
185
root 4.13709 16.8869 -1.94023 -855.431 -75.1003 815.753
lowerback 35.1792 4.07144 1.96333
upperback 12.2121 3.17284 -9.92911
thorax -3.88164 1.14445 -12.7681
lowerneck 14.6421 12.8405 1.19568
upperneck 29.0388 15.1847 2.40399
head 6.70331 6.84202 0.663003
rclavicle -2.5842e-014 -3.18055e-015
rhumerus -42.8602 0.923978 -94.2559
rradius 38.2007
rwrist 9.75838
rhand -22.3311 18.9132
rfingers 7.12502
rthumb 4.08908 -11.0273
lclavicle -2.5842e-014 -3.18055e-015
lhumerus -46.8046 22.9195 55.8884
lradius 127.999
lwrist 210.579
lhand -6.0824 23.3681
lfingers 7.12502
lthumb 19.7531 52.3844
rfemur 23.3141 1.16739 8.12489
rtibia 36.8964
rfoot -19.6472 2.10244
rtoes -3.18737
lfemur -76.1716 6.40179 -19.015
ltibia 98.1667
lfoot 20.9003 6.32805
ltoes -13.7303
186
root 4.14562 16.8728 -1.95557 -854.056 -75.4779 815.307
lowerback 34.4101 3.82637 2.08319
upperback 12.0485 3.00418 -9.77054
thorax -3.81635 1.08339 -12.5747
lowerneck 15.0351 12.9518 1.40846
upperneck 28.2515 15.4581 2.02888
head 6.43115 7.0042 0.469184
rclavicle 1.0138e-014 -3.33958e-014
rhumerus -43.244 0.512918 -93.6154
rradius 36.9164
rwrist 10.6343
rhand -21.6613 18.1328
rfingers 7.12502
rthumb 4.73581 -11.7943
lclavicle 1.0138e-014 -3.33958e-014
lhumerus -45.4042 22.7295 55.9138
lradius 128.058
lwrist 210.601
lhand -6.13495 23.2555
lfingers 7.12502
lthumb 19.7026 52.277
rfemur 21.8754 0.603219 8.32658
rtibia 37.849
rfoot -19.8573 2.24474
rtoes -2.86908
lfemur -75.1831 6.5565 -19.7669
ltibia 99.6413
lfoot 20.2662 6.70326
ltoes -11.9115
